<svg xmlns="http://www.w3.org/2000/svg" xmlns:xlink="http://www.w3.org/1999/xlink" width="28" height="12" viewBox="0 0 28 12"><title>10</title><defs><path id="a" d="M6 0h16a6 6 0 1 1 0 12H6A6 6 0 1 1 6 0z"/><linearGradient id="b" x1="50%" x2="50%" y1="0%" y2="100%"><stop offset="0%" stop-color="#FFF" stop-opacity=".75"/><stop offset="100%" stop-color="#FFF" stop-opacity=".951"/></linearGradient></defs><g fill="none" fill-rule="evenodd"><use fill="#50D7FF" xlink:href="#a"/><path fill="#FFF" fill-rule="nonzero" d="M14.425 5.389l.264-1.25c1.207-.528 2.142-1.141 2.802-1.841h.855L16.837 9.5h-1.411l1.04-4.96c-.293.188-.63.36-1.013.517a6.23 6.23 0 0 1-1.028.332zm5.02 1.782c0-.72.122-1.449.366-2.188.3-.901.683-1.572 1.152-2.011.469-.44.99-.66 1.563-.66.579 0 1.055.21 1.428.63.373.42.559 1.03.559 1.831 0 .733-.136 1.507-.408 2.322-.272.816-.639 1.44-1.1 1.875-.463.435-.984.652-1.563.652-.58 0-1.058-.21-1.434-.63-.375-.42-.563-1.027-.563-1.821zm1.376.283c0 .384.062.654.186.81a.583.583 0 0 0 .479.235c.26 0 .491-.12.693-.361.27-.323.51-.957.718-1.905.166-.752.249-1.347.249-1.787 0-.358-.063-.616-.188-.774a.587.587 0 0 0-.481-.236c-.248 0-.467.118-.66.356-.283.345-.527.952-.732 1.821-.176.752-.264 1.366-.264 1.841z"/><g fill-rule="nonzero"><path fill="url(#b)" d="M7.101.002L5.471 0a.5.5 0 0 0-.38.174l-2.751 3.2L.933 6.283a.5.5 0 0 0 .45.718h.723a.5.5 0 0 0 .384-.18L7.485.822A.5.5 0 0 0 7.1.002z" transform="translate(5 2.5)"/><path fill="#FFF" d="M7.34 5.875V3.004a.5.5 0 0 0-.5-.5H5.29a.29.29 0 1 0 0 .581h.296V9a.5.5 0 0 0 .5.5h.754a.5.5 0 0 0 .5-.5V5.875z"/></g></g></svg>