<svg xmlns="http://www.w3.org/2000/svg" xmlns:xlink="http://www.w3.org/1999/xlink" width="28" height="12" viewBox="0 0 28 12"><title>2</title><defs><path id="a" d="M6 0h16a6 6 0 1 1 0 12H6A6 6 0 1 1 6 0z"/><linearGradient id="b" x1="50%" x2="50%" y1="0%" y2="100%"><stop offset="0%" stop-color="#FFF" stop-opacity=".75"/><stop offset="100%" stop-color="#FFF" stop-opacity=".951"/></linearGradient></defs><g fill="none" fill-rule="evenodd"><use fill="#50D9C5" xlink:href="#a"/><path fill="#FFF" fill-rule="nonzero" d="M18.66 4.573l-1.371-.205c.11-.664.368-1.173.774-1.526.405-.353.912-.53 1.52-.53.668 0 1.192.181 1.573.542.38.362.571.82.571 1.377 0 .284-.058.568-.176.852-.117.285-.309.584-.576.896-.192.222-.506.535-.942.94-.436.406-.725.682-.867.83a6.37 6.37 0 0 0-.408.472h2.481L20.975 9.5h-4.35c.045-.352.149-.686.31-1.003.16-.318.362-.613.603-.887.24-.273.682-.714 1.323-1.323a24.8 24.8 0 0 0 .913-.903c.228-.254.384-.474.469-.66a1.23 1.23 0 0 0 .127-.502c0-.241-.071-.437-.213-.586a.71.71 0 0 0-.54-.225.793.793 0 0 0-.58.252c-.166.167-.292.47-.376.91z"/><g fill-rule="nonzero"><path fill="url(#b)" d="M7.101.002L5.471 0a.5.5 0 0 0-.38.174l-2.751 3.2L.933 6.283a.5.5 0 0 0 .45.718h.723a.5.5 0 0 0 .384-.18L7.485.822A.5.5 0 0 0 7.1.002z" transform="translate(5 2.5)"/><path fill="#FFF" d="M7.34 5.875V3.004a.5.5 0 0 0-.5-.5H5.29a.29.29 0 1 0 0 .581h.296V9a.5.5 0 0 0 .5.5h.754a.5.5 0 0 0 .5-.5V5.875z"/></g></g></svg>