<svg xmlns="http://www.w3.org/2000/svg" xmlns:xlink="http://www.w3.org/1999/xlink" width="28" height="12" viewBox="0 0 28 12"><title>3</title><defs><path id="a" d="M6 0h16a6 6 0 1 1 0 12H6A6 6 0 1 1 6 0z"/><linearGradient id="b" x1="50%" x2="50%" y1="0%" y2="100%"><stop offset="0%" stop-color="#FFF" stop-opacity=".75"/><stop offset="100%" stop-color="#FFF" stop-opacity=".951"/></linearGradient></defs><g fill="none" fill-rule="evenodd"><use fill="#50D9C5" xlink:href="#a"/><path fill="#FFF" fill-rule="nonzero" d="M16.527 7.63l1.343-.161c.055.38.155.644.3.79.145.147.338.22.579.22.319 0 .583-.107.793-.322.21-.215.315-.49.315-.825 0-.293-.085-.525-.254-.696-.169-.17-.397-.256-.683-.256-.072 0-.147.006-.225.02l.244-1.168c.049.007.096.01.142.01.374 0 .659-.095.854-.285.196-.19.293-.449.293-.774 0-.232-.066-.414-.198-.547a.698.698 0 0 0-.52-.2.775.775 0 0 0-.542.222c-.159.148-.286.4-.38.759l-1.28-.254c.163-.527.39-.933.679-1.216.44-.423.98-.635 1.621-.635.658 0 1.157.184 1.5.55.34.366.512.805.512 1.316 0 .37-.11.706-.327 1.006-.218.3-.518.519-.899.659.303.16.526.366.67.62.142.254.214.52.214.796 0 .527-.187 1.012-.561 1.455-.512.605-1.17.908-1.978.908-.606 0-1.104-.173-1.497-.52-.392-.347-.63-.837-.715-1.472z"/><g fill-rule="nonzero"><path fill="url(#b)" d="M7.101.002L5.471 0a.5.5 0 0 0-.38.174l-2.751 3.2L.933 6.283a.5.5 0 0 0 .45.718h.723a.5.5 0 0 0 .384-.18L7.485.822A.5.5 0 0 0 7.1.002z" transform="translate(5 2.5)"/><path fill="#FFF" d="M7.34 5.875V3.004a.5.5 0 0 0-.5-.5H5.29a.29.29 0 1 0 0 .581h.296V9a.5.5 0 0 0 .5.5h.754a.5.5 0 0 0 .5-.5V5.875z"/></g></g></svg>