<svg xmlns="http://www.w3.org/2000/svg" xmlns:xlink="http://www.w3.org/1999/xlink" width="28" height="12" viewBox="0 0 28 12"><title>5</title><defs><path id="a" d="M6 0h16a6 6 0 1 1 0 12H6A6 6 0 1 1 6 0z"/><linearGradient id="b" x1="50%" x2="50%" y1="0%" y2="100%"><stop offset="0%" stop-color="#FFF" stop-opacity=".75"/><stop offset="100%" stop-color="#FFF" stop-opacity=".951"/></linearGradient></defs><g fill="none" fill-rule="evenodd"><use fill="#50D9C5" xlink:href="#a"/><path fill="#FFF" fill-rule="nonzero" d="M16.654 7.45l1.362-.123a3.21 3.21 0 0 0-.005.147c0 .332.074.58.223.747a.739.739 0 0 0 .578.249c.332 0 .634-.159.906-.476.272-.318.408-.756.408-1.316 0-.332-.077-.583-.23-.752a.783.783 0 0 0-.61-.254 1.18 1.18 0 0 0-.53.127c-.17.084-.336.213-.496.386l-1.152-.088 1.089-3.658h3.599l-.264 1.28h-2.378l-.327 1.103a2.14 2.14 0 0 1 .41-.139c.137-.03.272-.046.405-.046.547 0 .996.184 1.348.551.352.368.527.861.527 1.48 0 .495-.123.982-.368 1.462-.246.48-.587.85-1.023 1.106a2.662 2.662 0 0 1-1.372.386c-.61 0-1.11-.197-1.502-.59-.392-.395-.591-.922-.598-1.583z"/><g fill-rule="nonzero"><path fill="url(#b)" d="M7.101.002L5.471 0a.5.5 0 0 0-.38.174l-2.751 3.2L.933 6.283a.5.5 0 0 0 .45.718h.723a.5.5 0 0 0 .384-.18L7.485.822A.5.5 0 0 0 7.1.002z" transform="translate(5 2.5)"/><path fill="#FFF" d="M7.34 5.875V3.004a.5.5 0 0 0-.5-.5H5.29a.29.29 0 1 0 0 .581h.296V9a.5.5 0 0 0 .5.5h.754a.5.5 0 0 0 .5-.5V5.875z"/></g></g></svg>