<svg xmlns="http://www.w3.org/2000/svg" xmlns:xlink="http://www.w3.org/1999/xlink" width="28" height="12" viewBox="0 0 28 12"><title>7</title><defs><path id="a" d="M6 0h16a6 6 0 1 1 0 12H6A6 6 0 1 1 6 0z"/><linearGradient id="b" x1="50%" x2="50%" y1="0%" y2="100%"><stop offset="0%" stop-color="#FFF" stop-opacity=".75"/><stop offset="100%" stop-color="#FFF" stop-opacity=".951"/></linearGradient></defs><g fill="none" fill-rule="evenodd"><use fill="#50D7FF" xlink:href="#a"/><path fill="#FFF" fill-rule="nonzero" d="M17.054 3.733l.269-1.294h4.722l-.21.997c-.3.24-.63.603-.992 1.086a11.481 11.481 0 0 0-1.003 1.621c-.308.597-.559 1.165-.754 1.702-.27.742-.438 1.294-.503 1.655H17.25c.058-.358.197-.85.415-1.475.267-.768.6-1.51 1-2.226.401-.716.885-1.405 1.45-2.066h-3.06z"/><g fill-rule="nonzero"><path fill="url(#b)" d="M7.101.002L5.471 0a.5.5 0 0 0-.38.174l-2.751 3.2L.933 6.283a.5.5 0 0 0 .45.718h.723a.5.5 0 0 0 .384-.18L7.485.822A.5.5 0 0 0 7.1.002z" transform="translate(5 2.5)"/><path fill="#FFF" d="M7.34 5.875V3.004a.5.5 0 0 0-.5-.5H5.29a.29.29 0 1 0 0 .581h.296V9a.5.5 0 0 0 .5.5h.754a.5.5 0 0 0 .5-.5V5.875z"/></g></g></svg>