<svg xmlns="http://www.w3.org/2000/svg" xmlns:xlink="http://www.w3.org/1999/xlink" width="28" height="12" viewBox="0 0 28 12"><title>8</title><defs><path id="a" d="M6 0h16a6 6 0 1 1 0 12H6A6 6 0 1 1 6 0z"/><linearGradient id="b" x1="50%" x2="50%" y1="0%" y2="100%"><stop offset="0%" stop-color="#FFF" stop-opacity=".75"/><stop offset="100%" stop-color="#FFF" stop-opacity=".951"/></linearGradient></defs><g fill="none" fill-rule="evenodd"><use fill="#50D7FF" xlink:href="#a"/><path fill="#FFF" fill-rule="nonzero" d="M18.168 5.56a1.749 1.749 0 0 1-.564-.574 1.411 1.411 0 0 1-.188-.72c0-.306.088-.617.263-.933.176-.316.439-.565.789-.747.35-.182.746-.273 1.189-.273.638 0 1.136.166 1.494.498.358.332.537.751.537 1.26 0 .357-.1.67-.303.934-.201.266-.504.486-.908.662.293.179.512.396.657.652.145.255.217.548.217.876 0 .54-.172 1.032-.517 1.475-.502.638-1.187.957-2.056.957-.631 0-1.14-.186-1.523-.56-.385-.372-.577-.846-.577-1.422 0-.479.134-.907.4-1.285a2.14 2.14 0 0 1 1.09-.8zm.532-1.202c0 .225.068.406.205.545a.715.715 0 0 0 .532.207c.25 0 .471-.095.662-.285a.913.913 0 0 0 .285-.667.77.77 0 0 0-.21-.561.719.719 0 0 0-.537-.215.89.89 0 0 0-.661.283.956.956 0 0 0-.276.693zm-.625 3.31c0 .268.073.478.22.63.146.154.337.23.57.23.362 0 .641-.16.838-.478.197-.32.296-.666.296-1.04a.813.813 0 0 0-.227-.593.775.775 0 0 0-.579-.232c-.293 0-.553.135-.779.405-.226.27-.34.63-.34 1.079z"/><g fill-rule="nonzero"><path fill="url(#b)" d="M7.101.002L5.471 0a.5.5 0 0 0-.38.174l-2.751 3.2L.933 6.283a.5.5 0 0 0 .45.718h.723a.5.5 0 0 0 .384-.18L7.485.822A.5.5 0 0 0 7.1.002z" transform="translate(5 2.5)"/><path fill="#FFF" d="M7.34 5.875V3.004a.5.5 0 0 0-.5-.5H5.29a.29.29 0 1 0 0 .581h.296V9a.5.5 0 0 0 .5.5h.754a.5.5 0 0 0 .5-.5V5.875z"/></g></g></svg>