<svg xmlns="http://www.w3.org/2000/svg" xmlns:xlink="http://www.w3.org/1999/xlink" width="28" height="12" viewBox="0 0 28 12"><title>9</title><defs><path id="a" d="M6 0h16a6 6 0 1 1 0 12H6A6 6 0 1 1 6 0z"/><linearGradient id="b" x1="50%" x2="50%" y1="0%" y2="100%"><stop offset="0%" stop-color="#FFF" stop-opacity=".75"/><stop offset="100%" stop-color="#FFF" stop-opacity=".951"/></linearGradient></defs><g fill="none" fill-rule="evenodd"><use fill="#50D7FF" xlink:href="#a"/><path fill="#FFF" fill-rule="nonzero" d="M16.654 7.85l1.313-.108c.027.28.094.477.203.591.11.114.256.17.442.17a.858.858 0 0 0 .63-.277c.267-.27.478-.707.635-1.309a1.737 1.737 0 0 1-.957.293c-.554 0-1.01-.188-1.368-.564-.358-.376-.537-.89-.537-1.54a3 3 0 0 1 .689-1.944c.459-.566 1.068-.85 1.826-.85.67 0 1.183.245 1.538.733s.532 1.149.532 1.982c0 1.286-.284 2.373-.852 3.262-.568.889-1.316 1.333-2.243 1.333-.544 0-.979-.155-1.304-.466-.326-.311-.508-.746-.547-1.306zm3.599-3.31c0-.379-.075-.656-.225-.833a.7.7 0 0 0-.557-.267c-.273 0-.507.127-.703.381-.263.342-.395.801-.395 1.377 0 .371.073.646.22.823a.672.672 0 0 0 .537.266c.179 0 .36-.068.542-.205.182-.137.324-.352.427-.647.102-.295.154-.593.154-.896z"/><g fill-rule="nonzero"><path fill="url(#b)" d="M7.101.002L5.471 0a.5.5 0 0 0-.38.174l-2.751 3.2L.933 6.283a.5.5 0 0 0 .45.718h.723a.5.5 0 0 0 .384-.18L7.485.822A.5.5 0 0 0 7.1.002z" transform="translate(5 2.5)"/><path fill="#FFF" d="M7.34 5.875V3.004a.5.5 0 0 0-.5-.5H5.29a.29.29 0 1 0 0 .581h.296V9a.5.5 0 0 0 .5.5h.754a.5.5 0 0 0 .5-.5V5.875z"/></g></g></svg>